<?xml version="1.0" encoding="UTF-8" standalone="no"?>
<!-- Created with Inkscape (http://www.inkscape.org/) -->

<svg
   xmlns:dc="http://purl.org/dc/elements/1.1/"
   xmlns:cc="http://creativecommons.org/ns#"
   xmlns:rdf="http://www.w3.org/1999/02/22-rdf-syntax-ns#"
   xmlns:svg="http://www.w3.org/2000/svg"
   xmlns="http://www.w3.org/2000/svg"
   xmlns:sodipodi="http://sodipodi.sourceforge.net/DTD/sodipodi-0.dtd"
   xmlns:inkscape="http://www.inkscape.org/namespaces/inkscape"
   id="svg2"
   version="1.1"
   inkscape:version="0.91 r13725"
   xml:space="preserve"
   width="924.82501"
   height="267.54999"
   viewBox="0 0 924.82501 267.54999"
   sodipodi:docname="UoB-Transparent.svg"><metadata
     id="metadata8"><rdf:RDF><cc:Work
         rdf:about=""><dc:format>image/svg+xml</dc:format><dc:type
           rdf:resource="http://purl.org/dc/dcmitype/StillImage" /><dc:title></dc:title></cc:Work></rdf:RDF></metadata><defs
     id="defs6" /><sodipodi:namedview
     pagecolor="#ffffff"
     bordercolor="#666666"
     borderopacity="1"
     objecttolerance="10"
     gridtolerance="10"
     guidetolerance="10"
     inkscape:pageopacity="0"
     inkscape:pageshadow="2"
     inkscape:window-width="1366"
     inkscape:window-height="717"
     id="namedview4"
     showgrid="false"
     inkscape:zoom="0.71148595"
     inkscape:cx="566.12231"
     inkscape:cy="42.373276"
     inkscape:window-x="0"
     inkscape:window-y="25"
     inkscape:window-maximized="1"
     inkscape:current-layer="layer1" /><g
     inkscape:groupmode="layer"
     id="layer1"
     inkscape:label="ink_ext_XXXXXX 1"
     style="display:inline"
     transform="translate(0,4.4140624e-6)"><rect
       style="fill:#003333;fill-opacity:1"
       id="rect4267"
       width="924.82501"
       height="267.54999"
       x="0"
       y="-2.2070312e-06" /></g><g
     id="g10"
     inkscape:groupmode="layer"
     inkscape:label="ink_ext_XXXXXX"
     transform="matrix(1.25,0,0,-1.25,0,267.55)"
     sodipodi:insensitive="true"
     style="display:inline"><path
       inkscape:connector-curvature="0"
       id="path14"
       style="fill:#ffffff;fill-opacity:1;fill-rule:nonzero;stroke:none"
       d="m 264.625,46.975 13.632,0 c 14.771,0 22.22,-9.977 22.22,-19.6969 0,-9.8429 -4.798,-20.19412 -21.461,-20.19412 -10.606,0 -14.391,3.41092 -14.391,13.00122 l 0,26.8898 z M 254.151,16.427 c 0,-7.95903 -2.022,-10.35395 -12.369,-10.35395 l -2.909,0 0,-2.39805 46.201,0 c 20.327,0 27.266,14.0121 27.266,23.9852 0,9.8429 -6.939,17.5468 -18.802,21.0808 l 0,0.2531 c 8.457,1.5161 14.386,8.2028 14.386,15.3957 0,6.0633 -2.523,10.3582 -7.7,14.0122 -4.545,3.2851 -14.265,4.9281 -25.371,4.9281 -2.402,0 -11.993,-0.1242 -18.94,-0.3821 -3.657,-0.1261 -12.37,-0.632 -15.904,-0.7519 l 0,-2.402 4.419,0 c 8.835,0 9.723,-3.7863 9.723,-10.9793 l 0,-52.3878 z m 10.474,64.125 c 3.156,0.1269 8.335,0.38 11.109,0.38 15.527,0 20.828,-8.08 20.828,-16.9179 0,-9.8469 -6.06,-14.6411 -18.176,-14.6411 l -13.761,0 0,31.179" /><path
       inkscape:connector-curvature="0"
       id="path16"
       style="fill:#ffffff;fill-opacity:1;fill-rule:nonzero;stroke:none"
       d="m 346.934,39.0211 c -2.908,0 -4.802,-0.125 -7.83,0.2508 l 0,41.407 c 2.271,0.2531 3.913,0.2531 6.313,0.2531 19.452,0 24.746,-9.0941 24.746,-20.8289 0,-15.148 -9.207,-21.082 -23.229,-21.082 z m 93.276,40.773 0,2.402 -30.676,0 0,-2.402 c 7.068,-0.3761 9.47,-2.2679 9.47,-9.0871 l 0,-53.7769 c 0,-8.20315 -1.561,-10.34104 -8.788,-10.81213 -9.628,0.50586 -13.716,4.28323 -20.624,11.18593 l -9.963,9.9742 c -5.926,5.9328 -9.714,9.4719 -14.385,13.1309 10.351,3.0269 16.782,10.9832 16.782,20.4488 0,12.8762 -10.474,22.4723 -33.831,22.4723 -8.21,0 -10.735,-0.1242 -15.909,-0.3821 -5.174,-0.2492 -12.877,-0.7519 -15.905,-0.7519 l 0,-2.402 2.778,0 c 7.321,0 9.467,-2.2679 9.467,-10.1 l 0,-53.1441 c 0,-8.46094 -2.653,-10.47695 -10.098,-10.47695 l -2.147,0 0,-2.39805 35.731,0 0,2.39805 -2.907,0 c -7.073,0 -10.101,1.89492 -10.101,9.46915 l 0,21.334 c 2.021,-0.1262 3.661,-0.2571 6.439,-0.2571 3.413,0 5.432,0.1309 8.591,0.2571 3.032,-2.0211 7.453,-5.6793 13.005,-11.2352 l 8.328,-8.3371 C 386.381,6.38281 391.037,2.93086 411.593,3.675 l 28.617,0 0,2.39805 c -8.71,0 -10.728,2.52383 -10.728,9.97185 l 0,53.5231 c 0,8.4582 2.778,10.2261 10.728,10.2261" /><path
       inkscape:connector-curvature="0"
       id="path18"
       style="fill:#ffffff;fill-opacity:1;fill-rule:nonzero;stroke:none"
       d="m 448.793,22.8629 c 2.655,-11.2367 11.486,-17.79806 21.334,-17.79806 8.459,0 17.416,4.92032 17.416,14.89216 0,18.1809 -40.517,23.734 -40.517,45.8231 0,10.482 9.594,18.307 22.472,18.307 10.597,0 12.748,-3.1551 17.167,-3.1551 1.006,0 1.511,0.252 2.271,1.2641 l 2.019,0 2.144,-16.034 -2.144,0 c -3.536,9.0867 -11.613,14.893 -20.326,14.893 -8.333,0 -14.139,-4.793 -14.139,-11.8641 0,-17.9262 40.523,-22.7262 40.523,-45.9469 0,-12.3722 -10.985,-21.58902 -25.751,-21.58902 -6.946,0 -15.775,3.40976 -17.544,3.40976 -1.137,0 -2.024,-0.6289 -2.526,-1.38984 l -2.147,0 -2.647,19.1879 2.395,0" /><path
       inkscape:connector-curvature="0"
       id="path20"
       style="fill:#ffffff;fill-opacity:1;fill-rule:nonzero;stroke:none"
       d="m 545.617,15.2879 c 0,-6.81993 2.266,-9.21485 9.966,-9.21485 l 4.677,0 0,-2.39805 -39.768,0 0,2.39805 4.675,0 c 7.699,0 9.968,2.39492 9.968,9.21485 l 0,62.357 -21.967,0 c -5.045,0 -7.319,-2.8969 -9.216,-14.007 l -2.268,0 2.02,20.4492 2.396,0 c 0.13,-0.757 0.635,-1.2652 1.39,-1.5152 0.759,-0.2559 1.643,-0.3758 2.524,-0.3758 l 60.719,0 c 1.769,0 3.662,0.3758 3.918,1.891 l 2.394,0 2.023,-20.4492 -2.276,0 c -1.89,11.1101 -4.163,14.007 -9.209,14.007 l -21.966,0 0,-62.357" /><path
       inkscape:connector-curvature="0"
       id="path22"
       style="fill:#ffffff;fill-opacity:1;fill-rule:nonzero;stroke:none"
       d="m 671.493,45.0801 c 0,22.7211 -20.451,39.007 -44.307,39.007 -26.886,0 -46.205,-17.798 -46.205,-42.918 0,-23.6113 20.833,-39.51402 45.576,-39.51402 24.485,0 44.936,17.92502 44.936,43.42502 z M 659.625,40.916 c 0,-17.9238 -9.843,-36.09998 -30.418,-36.09998 -20.328,0 -36.355,16.65588 -36.355,40.26408 0,15.15 8.83,35.8519 31.051,35.8519 20.83,0 35.722,-16.5422 35.722,-40.016" /><path
       inkscape:connector-curvature="0"
       id="path24"
       style="fill:#ffffff;fill-opacity:1;fill-rule:nonzero;stroke:none"
       d="m 730.144,3.675 -56.427,0 0,2.39805 4.164,0 c 5.806,0 7.951,1.89492 7.951,8.33285 l 0,55.925 c 0,6.6871 -2.018,9.4632 -9.969,9.4632 l -1.768,0 0,2.402 37.238,0 0,-2.402 -4.674,0 c -8.2,0 -10.352,-0.8832 -10.352,-8.7113 l 0,-58.1906 c 0,-3.41017 1.395,-4.67423 5.051,-4.67423 l 18.557,0 c 7.447,0 9.715,2.90583 17.673,13.88593 l 2.271,0 -9.715,-18.4289" /><path
       inkscape:connector-curvature="0"
       id="path26"
       style="fill:#ffffff;fill-opacity:1;fill-rule:nonzero;stroke:none"
       d="m 140.448,118.28 c -0.092,7.348 -2.586,22.366 -20.164,30.889 17.85,-5.671 26.435,-20.752 27.313,-32.005 18.739,-3.735 35.369,-12.554 62.371,-3.241 l 0.094,0.059 c 0,0 -35.533,-0.323 -50.392,10.426 7.675,-0.289 16.508,1.448 19.403,5.792 3.086,4.629 3.405,9.409 11.006,9.654 4.271,0.138 18.753,-0.943 20.272,20.321 -4.634,-7.82 -9.653,-11.054 -17.232,-9.123 -4.838,1.232 -13.67,4.934 -19.982,-2.607 -5.213,-6.226 -10.811,-9.46 -19.741,-8.495 3.572,4.827 56.811,73.946 56.811,73.946 0,0 -68.203,-54.736 -71.967,-57.921 -0.724,9.991 2.268,13.66 6.274,18.052 3.278,3.594 8.977,8.46 4.44,18.728 -3.667,8.302 -3.185,13.322 6.807,21.286 -7.965,-0.58 -20.118,-5.936 -18.68,-20.562 0.869,-8.833 -5.39,-9.597 -7.675,-10.86 -5.937,-3.282 -6.71,-12.84 -6.902,-20.272 -0.676,2.413 -9.314,39.557 -12.355,51.575 -0.002,-0.006 -0.001,-99.94 -0.001,-99.94 l 0.229,0 c 11.575,4.558 21.204,5.256 30.071,4.298" /><path
       inkscape:connector-curvature="0"
       id="path28"
       style="fill:#ffffff;fill-opacity:1;fill-rule:nonzero;stroke:none"
       d="m 310.09,172.227 0,-1.779 c -6.271,-0.093 -8.516,-2.62 -8.516,-8.612 l 0,-25.273 c 0,-11.608 -7.397,-24.056 -27.709,-24.056 -17.879,0 -27.052,10.203 -27.052,23.588 l 0,27.333 c 0,5.99 -1.685,6.927 -8.049,7.02 l 0,1.779 24.056,0 0,-1.779 -0.843,0 c -5.147,0 -7.394,-1.405 -7.394,-6.834 l 0,-26.021 c 0,-12.638 7.394,-20.22 21.341,-20.22 10.578,0 21.343,4.4 21.343,20.313 l 0,21.81 c 0,8.986 -1.404,10.577 -9.174,10.952 l 0,1.779 21.997,0" /><path
       inkscape:connector-curvature="0"
       id="path30"
       style="fill:#ffffff;fill-opacity:1;fill-rule:nonzero;stroke:none"
       d="m 322.392,122.147 c 0,-5.147 1.216,-6.365 6.271,-6.365 l 0,-1.778 -18.814,0 0,1.778 c 4.118,0 6.271,2.247 6.271,5.898 l 0,19.656 c 0,3.464 -0.375,4.119 -2.809,4.588 l -3.182,0.654 0,1.498 10.765,3.932 1.498,0 0,-7.301 c 6.271,3.931 11.513,7.395 16.1,7.395 6.366,0 10.014,-4.681 10.014,-14.041 0,-12.451 -0.654,-14.884 -0.747,-18.534 -0.093,-2.527 1.405,-3.745 5.241,-3.745 l 2.06,0 0,-1.778 -20.125,0 0,1.778 c 2.714,0.094 4.305,0.749 5.335,1.779 1.778,1.779 1.966,8.612 1.966,21.062 0,7.488 -3.651,9.828 -7.395,9.828 -2.996,0 -7.582,-2.621 -12.449,-5.992 l 0,-20.312" /><path
       inkscape:connector-curvature="0"
       id="path32"
       style="fill:#ffffff;fill-opacity:1;fill-rule:nonzero;stroke:none"
       d="m 369.125,173.631 c 2.247,0 4.118,-1.591 4.118,-3.558 0,-1.964 -1.871,-3.557 -4.118,-3.557 -2.247,0 -4.026,1.593 -4.026,3.557 0,1.967 1.779,3.558 4.026,3.558 z m 3.838,-52.513 c 0,-3.276 1.78,-5.336 6.739,-5.336 l 0,-1.778 -20.781,0 0,1.778 c 5.711,0 7.77,1.872 7.77,6.833 l 0,18.815 c 0,3.65 -0.468,4.119 -2.901,4.587 l -4.4,0.843 0,1.497 12.168,4.212 1.405,0 0,-31.451" /><path
       inkscape:connector-curvature="0"
       id="path34"
       style="fill:#ffffff;fill-opacity:1;fill-rule:nonzero;stroke:none"
       d="m 401.078,113.161 -13.575,31.078 c -1.404,3.275 -2.621,4.399 -4.117,4.68 l -2.906,0.467 0,1.685 19.1,0 0,-1.685 c -5.713,-0.186 -7.489,-0.935 -5.245,-5.335 l 9.924,-23.307 9.549,21.622 c 1.686,3.839 0.84,6.553 -5.992,7.02 l 0,1.685 16.285,0 0,-1.685 c -3.553,-0.654 -5.615,-2.714 -7.393,-6.833 l -12.916,-29.392 -2.714,0" /><path
       inkscape:connector-curvature="0"
       id="path36"
       style="fill:#ffffff;fill-opacity:1;fill-rule:nonzero;stroke:none"
       d="m 459.023,137.779 0,2.154 c -3.088,3.088 -2.809,12.169 -15.445,12.169 -11.42,0 -18.065,-10.11 -18.065,-20.032 0,-10.858 7.112,-19.189 16.285,-19.189 6.834,0 12.731,4.68 16.662,9.641 l -1.029,1.123 c -3.556,-4.211 -7.207,-6.084 -11.887,-6.084 -7.396,0 -14.23,6.552 -14.23,16.287 0,1.217 0.189,2.527 0.375,3.931 l 27.334,0 z m -27.055,2.435 c 2.157,8.705 6.836,10.109 9.928,10.109 4.49,0 8.234,-4.025 9.264,-10.109 l -19.192,0" /><path
       inkscape:connector-curvature="0"
       id="path38"
       style="fill:#ffffff;fill-opacity:1;fill-rule:nonzero;stroke:none"
       d="m 477.074,120.837 c 0,-3.837 1.402,-5.055 6.084,-5.055 l 3.558,0 0,-1.778 -22.187,0 0,1.778 c 4.775,0.094 6.273,2.06 6.273,7.021 l 0,21.622 -6.273,2.247 0,1.592 10.672,3.744 1.873,0 0,-9.922 0.187,0 c 4.68,7.675 5.803,9.453 8.891,9.453 1.125,0 1.406,-0.093 3.183,-0.843 0.936,-0.373 2.622,-0.747 4.87,-1.403 l -2.248,-5.616 c -1.405,0.188 -3.182,0.655 -4.961,1.498 -1.03,0.467 -2.153,0.936 -3.276,0.936 -1.685,0 -2.717,-1.124 -3.652,-2.434 -1.217,-1.685 -2.246,-3.275 -2.994,-4.68 l 0,-18.16" /><path
       inkscape:connector-curvature="0"
       id="path40"
       style="fill:#ffffff;fill-opacity:1;fill-rule:nonzero;stroke:none"
       d="m 500.667,123.458 c 1.122,-5.616 4.678,-8.799 8.893,-8.799 3.742,0 6.645,2.809 6.645,6.178 0,1.966 -0.469,3.183 -2.997,5.71 -6.646,6.646 -14.039,7.301 -14.039,15.071 0,6.177 4.87,10.484 11.983,10.484 2.525,0 5.148,-0.563 7.486,-1.498 l 0.188,-8.518 -1.59,0 c -0.658,4.774 -3.748,7.769 -7.49,7.769 -3.09,0 -5.707,-2.153 -5.707,-5.243 0,-8.237 17.406,-9.64 17.406,-21.06 0,-6.084 -5.053,-10.671 -11.606,-10.671 -1.777,0 -3.089,0.28 -4.119,0.655 -1.029,0.28 -1.775,0.562 -2.527,0.562 -0.561,0 -1.121,-0.375 -1.59,-1.124 l -1.404,0 -1.03,10.484 1.498,0" /><path
       inkscape:connector-curvature="0"
       id="path42"
       style="fill:#ffffff;fill-opacity:1;fill-rule:nonzero;stroke:none"
       d="m 537.382,173.631 c 2.25,0 4.121,-1.591 4.121,-3.558 0,-1.964 -1.871,-3.557 -4.121,-3.557 -2.242,0 -4.021,1.593 -4.021,3.557 0,1.967 1.779,3.558 4.021,3.558 z m 3.842,-52.513 c 0,-3.276 1.777,-5.336 6.738,-5.336 l 0,-1.778 -20.781,0 0,1.778 c 5.713,0 7.77,1.872 7.77,6.833 l 0,18.815 c 0,3.65 -0.467,4.119 -2.903,4.587 l -4.398,0.843 0,1.497 12.168,4.212 1.406,0 0,-31.451" /><path
       inkscape:connector-curvature="0"
       id="path44"
       style="fill:#ffffff;fill-opacity:1;fill-rule:nonzero;stroke:none"
       d="m 574.638,151.071 -1.498,-4.118 -11.885,0 0,-21.81 c 0,-5.897 4.211,-7.863 6.176,-7.863 2.059,0 3.934,1.591 5.709,4.681 l 1.498,-1.404 c -2.246,-4.868 -5.896,-7.676 -10.203,-7.676 -5.523,0 -9.453,4.587 -9.453,10.857 l 0,23.215 -4.307,0 0,1.498 c 3.651,1.779 6.834,6.084 8.987,11.888 l 1.593,0 0,-9.268 13.383,0" /><path
       inkscape:connector-curvature="0"
       id="path46"
       style="fill:#ffffff;fill-opacity:1;fill-rule:nonzero;stroke:none"
       d="m 611.666,140.682 c 2.806,7.113 1.027,8.518 -4.495,8.704 l 0,1.685 15.537,0 0,-1.685 c -3.835,-0.467 -5.988,-3.088 -7.765,-7.487 l -15.914,-39.69 c -2.809,-6.9281 -4.961,-10.0141 -8.237,-10.0141 -2.248,0 -3.837,1.402 -3.837,3.275 0,3.8379 5.425,2.9031 7.767,5.2421 1.029,1.03 2.434,3.464 3.182,5.335 l 2.808,7.021 -14.509,30.797 c -1.776,3.837 -3.461,5.428 -7.395,5.521 l 0,1.685 18.817,0 0,-1.685 c -5.711,-0.093 -6.364,-1.778 -4.493,-5.709 l 10.576,-22.84 7.958,19.845" /><path
       inkscape:connector-curvature="0"
       id="path48"
       style="fill:#ffffff;fill-opacity:1;fill-rule:nonzero;stroke:none"
       d="m 643.719,132.257 c 0,-10.952 8.891,-19.376 20.498,-19.376 11.139,0 19.844,8.517 19.844,19.562 0,11.141 -8.705,19.659 -20.125,19.659 -9.734,0 -20.217,-6.927 -20.217,-19.845 z m 7.02,3.183 c 0,8.05 5.709,14.415 11.885,14.415 7.865,0 14.418,-9.08 14.418,-19.751 0,-9.36 -6.272,-14.977 -11.795,-14.977 -8.051,0 -14.508,8.986 -14.508,20.313" /><path
       inkscape:connector-curvature="0"
       id="path50"
       style="fill:#ffffff;fill-opacity:1;fill-rule:nonzero;stroke:none"
       d="m 711.206,146.953 -10.11,0 0,-25.648 c 0,-4.305 1.686,-5.523 6.928,-5.523 l 3.557,0 0,-1.778 -23.12,0 0,1.778 c 5.428,0 6.366,1.218 6.366,6.459 l 0,24.712 -6.928,0 0,1.592 c 2.619,0.561 4.867,1.404 6.928,2.526 0,7.77 1.685,13.667 7.209,19.19 4.584,4.587 8.982,6.646 13.289,6.646 5.242,0 9.642,-2.995 9.642,-4.4 0,-0.749 -1.779,-4.492 -2.527,-4.492 -1.313,0 -4.775,4.586 -10.953,4.586 -6.738,0 -10.391,-5.336 -10.391,-14.415 l 0,-7.115 9.455,0 0.655,-4.118" /><path
       inkscape:connector-curvature="0"
       id="path52"
       style="fill:#ffffff;fill-opacity:1;fill-rule:nonzero;stroke:none"
       d="m 73.518,159.864 c -0.7723,4.152 -0.3867,12.357 3.6679,20.466 -14.9629,-11.294 -15.1554,-20.466 -15.1554,-20.466 0,0 2.8957,2.221 11.4875,0 z m -6.9504,24.714 c 0,0 -18.1492,-2.607 -23.3613,-3.09 -3.5965,-2.123 -7.7235,-8.06 -7.7235,-8.06 0,0 -4.2469,-0.628 -12.7422,-2.172 -5.9062,-3.854 -9.4609,-12.839 -2.1246,-20.176 -2.3164,0.483 -2.3164,0.483 -5.6945,1.062 -7.24025,-4.634 -3.8613,-13.226 11.1976,-10.233 -4.2468,0.145 -6.3714,2.22 -6.323,4.924 -0.0965,2.944 5.648,6.612 12.6465,4.73 -6.6617,12.597 0.7234,17.569 0.7234,17.569 0,0 -3.9094,-10.402 4.6344,-18.921 0.7719,1.255 3.3301,4.779 10.5219,4.923 7.166,0.145 11.6675,-3.375 11.7769,-7.433 0.0965,-3.572 -4.4406,-7.337 -10.3293,-7.337 l -0.0965,8.535 c 0,0 -1.9183,-0.69 -2.4609,-1.448 0.0086,-0.392 -0.0484,-7.183 -0.0484,-7.183 -2.3172,0 -7.0473,0.965 -9.5571,4.972 -1.9312,0.192 -12.6945,1.786 -12.6945,1.786 l 0.5793,-2.848 c 0,0 3.7648,-0.628 4.4887,-4.393 0.8765,-4.555 3.4758,-8.736 5.7925,-10.426 4.4883,0.532 11.9219,6.178 25.5817,5.986 -12.55,-1.738 -25.2922,-15.156 -43.6344,-10.04 29.1535,-9.944 32.1465,12.164 68.6367,5.213 -5.6953,3.475 -14.1906,4.537 -14.1906,4.537 0,0 4.5367,4.924 4.7301,12.453 0.5793,0.037 1.3512,0.097 2.8,0.241 0.482,2.414 0.8203,4.863 0.8203,4.863 0,0 -7.9641,0.013 -14.6492,0.013 -16.2664,16.459 0.7,31.953 0.7,31.953 z m -40.7379,0.289 c 4.5851,-0.241 10.1586,2.609 10.5223,2.847 0,0 -1.9317,-4.874 2.4132,-4.584 4.7157,0.314 10.1442,2.731 10.9082,3.088 l 0,6.276 c -0.4207,-0.309 -5.0164,-3.558 -10.232,-4.731 -1.9055,-0.429 -1.2555,1.255 -1.0625,2.22 0.1934,0.966 0.3231,1.755 -3.0891,0.338 -13.9492,-5.792 -14.6738,-1.834 -14.6738,-1.351 -0.5785,-0.676 -0.3328,-3.81 5.2137,-4.103 z m 73.9402,29.054 c 0,0 0,-98.341 0,-99.939 -40.207,15.832 -56.957,-14.8672 -99.7699,0 0,-0.45 0.00117188,99.939 0.00117188,99.939 l 20.36872812,0 0,-10.788 11.6821,0 -0.0016,10.788 11.4887,0 0.0015,-10.789 11.5821,0.001 3e-4,10.788 11.584,0 0,-10.788 12.5977,-0.001 0,10.789 20.4652,0" /><path
       inkscape:connector-curvature="0"
       id="path54"
       style="fill:#ffffff;fill-opacity:1;fill-rule:nonzero;stroke:none"
       d="m 138.139,77.984 c 0,0 -0.476,0.2359 0.431,0.9949 0.111,0.093 0.286,-0.1141 0.814,-0.1199 0.71,-0.009 1.082,0.2359 1.671,0.9461 0.89,1.0769 -0.966,1.489 -1.569,0.973 -0.662,-0.566 -1.136,-1.1543 -1.704,-1.6722 0,0 -0.954,-0.8489 0.357,-1.1219 z m 34.419,-50.4852 c -1.593,-1.3019 -6.516,-3.7867 -7.747,-4.3668 -1.231,-0.58 -1.626,-0.9308 -2.534,-2.7261 -1.111,-2.1989 -2.173,-6.1821 -1.883,-6.4688 3.041,0.482 5.213,3.0391 5.213,3.0391 0,0 0.048,0.6269 -0.628,1.6929 -0.559,0.8789 0.531,1.8297 1.208,1.2778 0.514,-0.4239 1.23,-0.5078 1.665,-0.1449 0.434,0.3621 9.919,6.3949 10.353,7.0941 -1.931,1.9078 -3.403,3.8379 -3.403,3.8379 0,0 -0.652,-1.9301 -2.244,-3.2352 z m -37.07,26.4524 c -4.055,1.6418 -4.962,2.7398 -5.72,3.0636 -0.675,0.2903 -3.467,-0.8957 -3.934,-2.0976 -1.254,-3.2344 -4.054,-8.5192 -4.464,-9.2672 -0.221,-0.402 -0.458,-0.8711 -0.411,-1.4012 0.049,-0.5308 0.206,-2.6066 0.158,-3.0886 -0.049,-0.4852 0.024,-1.1122 0.216,-1.5942 0.193,-0.4832 0.447,-2.557 1.509,-4.6308 2.366,2.3628 2.712,5.8519 2.558,5.1617 -0.004,-0.0168 0.749,1.2769 -1.134,1.8601 -0.536,0.166 -0.457,1.5578 0.12,1.7379 0.701,0.2153 1.063,0.4102 1.401,1.6621 0.337,1.2578 1.611,5.7668 2.027,6.6391 0.063,0.132 0.181,0.359 0.415,0.468 0.361,0.166 0.794,0.2839 1.154,0.3418 0.178,0.0293 0.517,-0.1637 0.621,-0.2688 0.643,-0.6531 3.988,-3.3641 3.988,-3.3641 0,0 1.496,0.145 2.413,0.5301 -0.579,0.918 -0.82,3.1379 -0.917,4.2481 z m -4.091,19.066 c 0,0 -1.412,-1.7383 0.181,-2.1742 0.037,-0.5059 0.236,-1.502 0.435,-2.025 0.266,-0.7008 0.724,-0.4731 1.231,0.109 0.506,0.5781 1.322,1.6781 1.919,2.3152 0.542,0.5777 2.432,0.3726 1.665,-0.7953 -0.508,-0.7719 -0.906,-0.9789 -1.557,-1.1231 -0.515,-0.1136 -0.67,0.3262 -1.23,-0.4359 -0.591,-0.7988 -1.222,-1.357 -0.182,-1.357 0.543,0 1.575,-0.5059 2.263,-0.3969 0.648,0.1031 0.72,0.5238 0.79,1.1051 0.072,0.6031 -0.045,0.9519 0.628,1.3269 0.868,0.482 2.148,1.641 2.534,2.0512 0.444,0.4699 1.013,0.3609 1.593,0.3609 0.579,0 3.378,-0.3383 5.043,2.1598 1.175,1.7621 1.304,4.1633 0.869,6.3351 0.797,-0.796 1.867,-3.2992 1.303,-5.646 -1.003,-4.179 -3.06,-4.4129 -5.14,-4.8508 -0.869,-1.2301 -3.089,-4.3934 -4.271,-10.1391 -0.508,-0.3359 -4.707,-4.3902 -1.196,-11.041 -0.905,-0.3 -3.573,-1.4391 -5.152,-1.7949 -1.061,-0.2422 -1.95,-0.2961 -2.377,-0.8082 -0.483,-0.5801 -1.593,-2.4629 -1.014,-3.4039 0.411,-0.6661 3.041,-6.5512 3.258,-8.3641 0.217,-1.8078 0.872,-2.2379 1.521,-2.8238 0.723,-0.6481 1.194,-0.6153 2.208,-1.375 1.024,-0.7684 1.876,-2.15 2.823,-2.8942 1.015,-0.7968 2.148,-1.159 2.945,-1.084 -0.193,2.9411 -0.821,5.8372 -1.738,6.802 -0.952,1.002 -2.147,-0.4328 -2.437,-0.5059 -0.29,-0.0722 -0.693,0.2047 -0.869,1.0137 -0.181,0.832 0.579,1.5203 -0.145,2.6063 -1.348,2.0211 -2.631,4.2929 -2.787,4.5988 -0.942,1.8441 0.656,2.334 1.05,2.2422 0.941,-0.216 6.588,-0.9762 7.457,-1.0481 0.868,-0.073 1.349,-0.2191 1.737,0.216 1.195,1.3399 1.883,2.3168 2.571,3.6942 1.267,-0.9422 0.398,-2.7524 0.036,-4.8992 0.362,-0.316 8.543,-4.441 19.79,-1.4489 4.697,1.2481 4.162,0.2637 4.609,-0.6031 2.727,-5.2859 4.657,-7.3332 7.892,-9.9199 0.965,-0.7723 1.64,-2.0262 2.076,-2.7481 0.434,-0.7269 0.543,-2.014 0.193,-2.85 -0.435,-1.0371 -2.948,-5.5429 -3.379,-6.1781 -0.821,-1.209 -1.892,-2.2211 -2.8,-2.7027 -2.848,-1.5211 -3.559,-2.8871 -3.873,-3.9473 0.651,0 7.312,0 7.312,0 0,0 0.171,0.3789 0.084,1.293 -0.12,1.2769 1.038,1.4941 1.401,1.566 0.361,0.0723 1.013,-0.2148 1.592,1.1582 1.089,2.5879 5.333,9.7988 5.696,10.452 0.361,0.6519 1.688,2.3937 0.386,3.1597 -2.462,1.4492 -3.907,3.8301 -4.392,6.4942 -0.194,1.0601 -0.078,2.8101 2.317,5.791 5.115,6.3711 1.303,19.5 -10.088,19.2582 -6.461,-0.1371 -10.054,0.4137 -14.263,1.2558 -1.539,0.3079 -1.802,1.136 -1.473,2.0758 0.338,0.9653 0.664,2.8832 0.676,3.6684 -1.11,1.0129 -2.799,1.6398 -3.62,1.9289 -0.883,0.3117 -1.328,1.016 -0.434,1.0867 0.892,0.0723 4.271,-0.2898 4.271,-0.2898 0,0 0.121,1.8109 -0.362,4.4648 -1.448,0.6293 -3.283,1.1602 -5.212,1.4 -0.509,0.0633 -0.955,0.6363 0.337,0.8211 1.69,0.241 3.235,-0.0258 4.441,0.0492 0.072,0.143 -0.579,3.5207 -1.774,4.8867 -0.832,0.2512 -1.273,0.368 -4.163,0.7102 -1.014,0.1191 -1.062,0.4109 -0.386,0.6289 0.785,0.25 2.087,0.5063 3.717,0.3992 -0.628,0.8668 -4.828,8.5289 -13.539,6.2239 0.977,-1.193 1.447,-1.7469 1.737,-2.5692 0.26,-0.734 -0.517,-0.9687 -1.231,-0.2187 -2.751,2.898 -4.199,2.825 -5.973,3.1519 1.158,-1.1238 1.666,-2.2469 2.063,-3.368 -1.99,-1.4121 -4.814,-4.7769 -5.212,-5.43 -0.758,-1.2399 0.29,-1.9071 0.29,-1.9071 l -4.671,-5.6937 z m 56.292,19.4019 c -8.905,-3.1132 -7.592,-12.7113 -5.188,-16.4113 3.137,-4.8269 5.792,-4.9226 7.795,-10.5937 1.562,-4.4243 -1.231,-6.7332 -3.982,-7.7469 4.706,-2.8981 9.557,0.0969 11.294,2.9937 3.2,4.2641 -0.425,9.8012 2.994,12.6922 0.913,0.7731 2.461,1.3039 4.536,1.4 -2.076,2.9457 -6.951,2.6078 -8.905,-0.1441 -1.376,3.1859 -5.238,5.9711 -3.837,10.909 0.917,3.2332 6.033,4.441 7.963,1.7871 1.057,-1.4539 1.207,-4.2973 -1.882,-5.7473 1.931,0.1453 5.599,3.4774 3.089,8.0152 -1.762,3.186 -4.73,3.4258 -7.143,3.4258 -4.393,0 -11.681,-5.0207 -7.023,-15.8558 -2.679,2.389 -7.023,10.716 0.289,15.2761 z m 22.218,11.2829 c 0,1.595 -0.002,-100.05317 0,-100.05903 -55.315,-13.4668 -56.909,15.92813 -99.771,0 0.005,-1.29883 -0.018,100.06803 0,100.05903 39.386,16.507 54.737,-14.77 99.771,0" /><path
       inkscape:connector-curvature="0"
       id="path56"
       style="fill:#ffffff;fill-opacity:1;fill-rule:nonzero;stroke:none"
       d="m 36.2953,46.6199 c 0,0 -1.7508,-1.1449 0.4414,-5.9539 2.1914,-4.8051 4.9121,-9.2832 0.177,-14.564 2.6855,-0.0309 8.5476,3.5101 2.2754,14.064 -1.4426,2.4301 -3,4.1141 -2.8938,6.4539 z m -5.9336,-2.266 c 1.4496,0.0981 1.6332,1.8723 1.3707,2.8063 -0.3086,1.1007 -2.1496,1.2378 -2.5922,-0.1641 -0.4386,-1.3891 -0.055,-2.7402 -0.055,-2.7402 0.3636,-1.3387 1.8711,-1.7207 2.0003,-1.586 -0.8375,0.7492 -0.6105,1.1821 -0.7238,1.684 z m 1.3942,-6.3898 c -0.35,-4.25 -2.7871,-4.875 -2.7871,-4.875 -4.252,1.955 -6.5333,-3.3981 -2.9649,-4.975 4.5227,-1.9981 7.2906,3.8468 7.559,4.9269 0.7625,3.0641 0.834,5.2301 0.4934,10.207 -0.2907,4.2418 0.755,4.8821 1.4527,4.9989 0.6976,0.116 2.1512,0.1722 3.6031,-4.2457 1.4539,-4.4153 4.5891,-5.0551 4.5891,-5.0551 0,0 -4.5395,7.3867 1.775,14.2078 2.9359,3.1711 8.9226,4.9723 7.8144,9.4121 0,0 -0.9258,-1.5922 -2.7281,-2.057 -1.802,-0.4649 -5.2891,-0.9879 -5.2891,-0.9879 0,0 8.3696,3.9527 9.8809,8.4867 0,0 2.6152,-4.3598 -0.8727,-10.7527 0,0 3.3219,1.189 6.8957,-0.425 C 70.2859,52.793 69.3188,39.818 57.793,36.7238 41.3895,32.3219 47.3453,19.6328 56.7398,18.8551 c -1.0078,0.639 -1.2371,4.466 0.4125,6.7359 0.8235,0.7352 2.2965,2.216 3.2309,-0.8949 1.6496,-5.5 6.4621,-5.9473 8.6949,-5.2602 -0.584,0.493 -1.6832,2.1672 -1.5465,3.1301 0.2754,1.9238 2.6786,-0.0738 3.552,-0.3211 6.4613,-1.8328 9.8984,-0.232 10.2644,0.7332 -1.4425,0.2989 -1.1914,0.1348 -2.1074,0.3668 -0.8543,0.2129 -2.5125,1.3961 0.5957,2.1082 5.7067,1.3059 8.8453,7.193 5.0879,11.7289 -3.5875,4.3328 -8.1101,3.6692 -9.5785,3.0731 6.1863,-1.3301 6.4981,-6.3102 3.3445,-8.8449 -2.7484,-2.0633 -9.5765,-2.8872 -11.9144,1.6949 -1.4778,-1.066 -1.993,-2.7723 -1.741,-4.9031 -0.6192,0.2308 -3.2094,3.9179 0.6406,6.964 17.8496,11.507 14.9687,30.8449 -0.1379,38.8039 L 65.35,74.052 c -13.7047,7.873 -25.6941,0.6878 -25.6941,0.6878 8.473,8.4864 23.116,3.4372 25.2226,2.384 0,0 -1.6844,1.466 -2.5805,2.8114 -1.1613,1.741 -1.1171,3.4039 -1.1171,3.4039 -5.8137,-3.245 -7.3133,1.741 -7.3133,1.741 0,0 -5.034,-4.5379 -8.3012,-0.8473 -2.8559,3.2293 1.768,7.6094 1.768,7.6094 C 17.8477,82.1641 23.4363,65.5141 23.4363,65.5141 c 0,0 -4.2703,-3.9231 -5.2258,-13.3743 -1.0855,-10.7359 4.2625,-18.3726 10.9442,-16.275 1.5305,0.4801 2.2906,1.209 2.5855,2.0161 l 0.0157,0.0832 z m 68.0152,65.7379 c 0.0176,0.009 -0.0055,-101.35786 0,-100.05903 C 56.9094,19.5711 55.3145,-9.82383 0,3.64297 0.0015625,3.64883 0,105.297 0,103.702 c 45.0336,-14.77 60.3844,16.507 99.7711,0" /></g></svg>